# Blender 4.1.1
# www.blender.org
mtllib wheel.mtl
o Wheel.002
v -0.071165 -0.000000 -0.036043
v -0.066597 -0.000000 -0.202582
v 0.071165 -0.000000 -0.036043
v 0.066597 0.000000 -0.202582
v -0.071165 -0.013793 -0.033299
v -0.066597 -0.077525 -0.187162
v 0.071165 -0.013793 -0.033299
v 0.066597 -0.077525 -0.187162
v -0.071165 -0.025486 -0.025486
v -0.066597 -0.143247 -0.143247
v 0.071165 -0.025486 -0.025486
v 0.066597 -0.143247 -0.143247
v -0.071165 -0.033299 -0.013793
v -0.066597 -0.187162 -0.077525
v 0.071165 -0.033299 -0.013793
v 0.066597 -0.187162 -0.077525
v -0.071165 -0.036043 0.000000
v -0.066597 -0.202582 0.000000
v 0.071165 -0.036043 0.000000
v 0.066597 -0.202582 0.000000
v -0.071165 -0.033299 0.013793
v -0.066597 -0.187162 0.077525
v 0.071165 -0.033299 0.013793
v 0.066597 -0.187162 0.077525
v -0.071165 -0.025486 0.025486
v -0.066597 -0.143247 0.143247
v 0.071165 -0.025486 0.025486
v 0.066597 -0.143247 0.143247
v -0.071165 -0.013793 0.033299
v -0.066597 -0.077525 0.187162
v 0.071165 -0.013793 0.033299
v 0.066597 -0.077525 0.187162
v -0.071165 -0.000000 0.036043
v -0.066597 -0.000000 0.202582
v 0.071165 -0.000000 0.036043
v 0.066597 0.000000 0.202582
v -0.071165 0.013793 0.033299
v -0.066597 0.077525 0.187162
v 0.071165 0.013793 0.033299
v 0.066597 0.077525 0.187162
v -0.071165 0.025486 0.025486
v -0.066597 0.143247 0.143247
v 0.071165 0.025486 0.025486
v 0.066597 0.143247 0.143247
v -0.071165 0.033299 0.013793
v -0.066597 0.187162 0.077525
v 0.071165 0.033299 0.013793
v 0.066597 0.187162 0.077525
v -0.071165 0.036043 0.000000
v -0.066597 0.202582 0.000000
v 0.071165 0.036043 0.000000
v 0.066597 0.202582 0.000000
v -0.071165 0.033299 -0.013793
v -0.066597 0.187162 -0.077525
v 0.071165 0.033299 -0.013793
v 0.066597 0.187162 -0.077525
v -0.071165 0.025486 -0.025486
v -0.066597 0.143247 -0.143247
v 0.071165 0.025486 -0.025486
v 0.066597 0.143247 -0.143247
v -0.071165 0.013793 -0.033299
v -0.066597 0.077525 -0.187162
v 0.071165 0.013793 -0.033299
v 0.066597 0.077525 -0.187162
v -0.077665 -0.073435 -0.177288
v -0.077665 -0.000000 -0.191895
v 0.077665 -0.000000 -0.191895
v 0.077665 -0.073435 -0.177288
v -0.077665 -0.135691 -0.135690
v 0.077665 -0.135691 -0.135690
v -0.077665 -0.177288 -0.073435
v 0.077665 -0.177288 -0.073435
v -0.077665 -0.191895 0.000000
v 0.077665 -0.191895 0.000000
v -0.077665 -0.177288 0.073435
v 0.077665 -0.177288 0.073435
v -0.077665 -0.135691 0.135690
v 0.077665 -0.135691 0.135690
v -0.077665 -0.073435 0.177288
v 0.077665 -0.073435 0.177288
v -0.077665 -0.000000 0.191895
v 0.077665 -0.000000 0.191895
v -0.077665 0.073435 0.177288
v 0.077665 0.073435 0.177288
v -0.077665 0.135690 0.135690
v 0.077665 0.135690 0.135690
v -0.077665 0.177288 0.073435
v 0.077665 0.177288 0.073435
v -0.077665 0.191895 0.000000
v 0.077665 0.191895 0.000000
v -0.077665 0.177288 -0.073435
v 0.077665 0.177288 -0.073435
v -0.077665 0.135690 -0.135690
v 0.077665 0.135690 -0.135690
v -0.077665 0.073435 -0.177288
v 0.077665 0.073435 -0.177288
v -0.077665 -0.060921 -0.147076
v -0.077665 -0.000000 -0.159193
v 0.077665 -0.000000 -0.159193
v 0.077665 -0.060921 -0.147076
v -0.077665 -0.112567 -0.112567
v 0.077665 -0.112567 -0.112567
v -0.077665 -0.147076 -0.060921
v 0.077665 -0.147076 -0.060921
v -0.077665 -0.159194 0.000000
v 0.077665 -0.159194 0.000000
v -0.077665 -0.147076 0.060921
v 0.077665 -0.147076 0.060921
v -0.077665 -0.112567 0.112567
v 0.077665 -0.112567 0.112567
v -0.077665 -0.060921 0.147076
v 0.077665 -0.060921 0.147076
v -0.077665 -0.000000 0.159194
v 0.077665 -0.000000 0.159194
v -0.077665 0.060921 0.147076
v 0.077665 0.060921 0.147076
v -0.077665 0.112567 0.112567
v 0.077665 0.112567 0.112567
v -0.077665 0.147076 0.060921
v 0.077665 0.147076 0.060921
v -0.077665 0.159193 0.000000
v 0.077665 0.159193 0.000000
v -0.077665 0.147076 -0.060921
v 0.077665 0.147076 -0.060921
v -0.077665 0.112567 -0.112567
v 0.077665 0.112567 -0.112567
v -0.077665 0.060921 -0.147076
v 0.077665 0.060921 -0.147076
v -0.074096 -0.056614 -0.136678
v -0.074096 -0.000000 -0.147940
v 0.074096 -0.000000 -0.147940
v 0.074096 -0.056614 -0.136678
v -0.074096 -0.104609 -0.104609
v 0.074096 -0.104609 -0.104609
v -0.074096 -0.136678 -0.056614
v 0.074096 -0.136678 -0.056614
v -0.074096 -0.147940 0.000000
v 0.074096 -0.147940 0.000000
v -0.074096 -0.136678 0.056614
v 0.074096 -0.136678 0.056614
v -0.074096 -0.104609 0.104609
v 0.074096 -0.104609 0.104609
v -0.074096 -0.056614 0.136678
v 0.074096 -0.056614 0.136678
v -0.074096 -0.000000 0.147940
v 0.074096 -0.000000 0.147940
v -0.074096 0.056614 0.136678
v 0.074096 0.056614 0.136678
v -0.074096 0.104609 0.104609
v 0.074096 0.104609 0.104609
v -0.074096 0.136678 0.056614
v 0.074096 0.136678 0.056614
v -0.074096 0.147939 0.000000
v 0.074096 0.147939 0.000000
v -0.074096 0.136678 -0.056614
v 0.074096 0.136678 -0.056614
v -0.074096 0.104609 -0.104609
v 0.074096 0.104609 -0.104609
v -0.074096 0.056614 -0.136678
v 0.074096 0.056614 -0.136678
vn -0.0000 0.1951 -0.9808
vn -0.0000 -0.8315 -0.5556
vn -0.0000 -0.9808 -0.1951
vn -0.0000 -0.9808 0.1951
vn -0.0000 -0.8315 0.5556
vn -0.0000 -0.5556 0.8315
vn -0.0000 -0.1951 0.9808
vn -0.0000 0.1951 0.9808
vn -0.0000 0.5556 0.8315
vn -0.0000 0.8315 0.5556
vn -0.0000 0.9808 0.1951
vn -0.0000 0.9808 -0.1951
vn -0.0000 0.8315 -0.5556
vn -0.0000 0.5556 -0.8315
vn -0.0000 -0.5556 -0.8315
vn 1.0000 -0.0000 -0.0000
vn -0.0000 -0.1951 -0.9808
vn -0.6876 -0.1417 -0.7121
vn 0.6876 -0.1417 -0.7121
vn -0.6876 -0.4034 -0.6037
vn 0.6876 -0.4034 -0.6037
vn -0.6876 -0.6037 -0.4034
vn 0.6876 -0.6037 -0.4034
vn -0.6876 -0.7121 -0.1417
vn 0.6876 -0.7121 -0.1417
vn -0.6876 -0.7121 0.1417
vn 0.6876 -0.7121 0.1417
vn -0.6876 -0.6037 0.4034
vn 0.6876 -0.6037 0.4034
vn -0.6876 -0.4034 0.6037
vn 0.6876 -0.4034 0.6037
vn -0.6876 -0.1417 0.7121
vn 0.6876 -0.1417 0.7121
vn -0.6876 0.1417 0.7121
vn 0.6876 0.1417 0.7121
vn -0.6876 0.4034 0.6037
vn 0.6876 0.4034 0.6037
vn -0.6876 0.6037 0.4034
vn 0.6876 0.6037 0.4034
vn -0.6876 0.7121 0.1417
vn 0.6876 0.7121 0.1417
vn -0.6876 0.7121 -0.1417
vn 0.6876 0.7121 -0.1417
vn -0.6876 0.6037 -0.4034
vn 0.6876 0.6037 -0.4034
vn -0.6876 0.4034 -0.6037
vn 0.6876 0.4034 -0.6037
vn -0.6876 0.1417 -0.7121
vn 0.6876 0.1417 -0.7121
vn -1.0000 -0.0000 -0.0000
vn -0.9515 0.0600 0.3018
vn 0.9515 0.0600 0.3018
vn -0.9515 0.1709 0.2558
vn 0.9515 0.1709 0.2558
vn -0.9515 0.2558 0.1709
vn 0.9515 0.2558 0.1709
vn -0.9515 0.3018 0.0600
vn 0.9515 0.3018 0.0600
vn -0.9515 0.3018 -0.0600
vn 0.9515 0.3018 -0.0600
vn -0.9515 0.2558 -0.1709
vn 0.9515 0.2558 -0.1709
vn -0.9515 0.1709 -0.2558
vn 0.9515 0.1709 -0.2558
vn -0.9515 0.0600 -0.3018
vn 0.9515 0.0600 -0.3018
vn -0.9515 -0.0600 -0.3018
vn 0.9515 -0.0600 -0.3018
vn -0.9515 -0.1709 -0.2558
vn 0.9515 -0.1709 -0.2558
vn -0.9515 -0.2558 -0.1709
vn 0.9515 -0.2558 -0.1709
vn -0.9515 -0.3018 -0.0600
vn 0.9515 -0.3018 -0.0600
vn -0.9515 -0.3018 0.0600
vn 0.9515 -0.3018 0.0600
vn -0.9515 -0.2558 0.1709
vn 0.9515 -0.2558 0.1709
vn -0.9515 -0.1709 0.2558
vn 0.9515 -0.1709 0.2558
vn -0.9515 -0.0600 0.3018
vn 0.9515 -0.0600 0.3018
vn -0.9996 0.0052 0.0262
vn 0.9996 0.0052 0.0262
vn -0.9996 0.0222 0.0148
vn 0.9996 0.0222 0.0148
vn -0.9996 0.0262 -0.0052
vn 0.9996 0.0262 -0.0052
vn -0.9996 0.0148 -0.0222
vn 0.9996 0.0148 -0.0222
vn -0.9996 -0.0052 -0.0262
vn 0.9996 -0.0052 -0.0262
vn -0.9996 -0.0222 -0.0148
vn 0.9996 -0.0222 -0.0148
vn -0.9996 -0.0262 0.0052
vn 0.9996 -0.0262 0.0052
vn -0.9996 -0.0148 0.0222
vn 0.9996 -0.0148 0.0222
vn -0.0000 0.9239 -0.3827
vn -0.0000 -1.0000 -0.0000
vn -0.0000 0.9239 0.3827
vn -0.0000 -0.7071 -0.7071
vn -0.0000 0.3827 -0.9239
vn -0.0000 -0.0000 1.0000
vn -0.0000 -0.7071 0.7071
vn -0.0000 0.7071 0.7071
vn -0.0000 -0.3827 -0.9239
vn -0.0000 -0.9239 -0.3827
vn -0.0000 1.0000 -0.0000
vn -0.0000 -0.9239 0.3827
vn -0.0000 0.7071 -0.7071
vn -0.0000 -0.3827 0.9239
vn -0.0000 -0.0000 -1.0000
vn -0.0000 0.3827 0.9239
vt 0.062500 0.546231
vt 0.062500 0.953769
vt 0.000000 0.953769
vt 0.000000 0.546231
vt 0.875000 0.546231
vt 0.875000 0.953769
vt 0.812500 0.953769
vt 0.812500 0.546231
vt 0.750000 0.953769
vt 0.750000 0.546231
vt 0.687500 0.953769
vt 0.687500 0.546231
vt 0.687500 0.953769
vt 0.625000 0.953769
vt 0.625000 0.546231
vt 0.562500 0.953769
vt 0.562500 0.546231
vt 0.500000 0.953769
vt 0.500000 0.546231
vt 0.437500 0.953769
vt 0.437500 0.546231
vt 0.375000 0.953769
vt 0.375000 0.546231
vt 0.312500 0.953769
vt 0.312500 0.546231
vt 0.250000 0.953769
vt 0.250000 0.546231
vt 0.187500 0.953769
vt 0.187500 0.546231
vt 0.125000 0.953769
vt 0.125000 0.546231
vt 0.937500 0.546231
vt 0.937500 0.953769
vt 0.263998 0.283794
vt 0.250000 0.286579
vt 0.236002 0.283794
vt 0.224135 0.275865
vt 0.216206 0.263998
vt 0.213421 0.250000
vt 0.216206 0.236002
vt 0.224135 0.224135
vt 0.236002 0.216206
vt 0.250000 0.213421
vt 0.263998 0.216206
vt 0.275865 0.224135
vt 0.283794 0.236002
vt 0.286579 0.250000
vt 0.283794 0.263998
vt 0.275865 0.275865
vt 1.000000 0.546231
vt 1.000000 0.953769
vt 0.937500 0.953769
vt 0.750000 0.490000
vt 0.841844 0.471731
vt 0.824527 0.429925
vt 0.750000 0.444749
vt 0.341844 0.471731
vt 0.250000 0.490000
vt 0.250000 0.444749
vt 0.324527 0.429925
vt 0.919706 0.419706
vt 0.887708 0.387708
vt 0.419706 0.419706
vt 0.387708 0.387708
vt 0.971731 0.341844
vt 0.929925 0.324527
vt 0.471731 0.341844
vt 0.429925 0.324527
vt 0.990000 0.250000
vt 0.944749 0.250000
vt 0.490000 0.250000
vt 0.444749 0.250000
vt 0.971731 0.158156
vt 0.929925 0.175473
vt 0.471731 0.158156
vt 0.429925 0.175473
vt 0.919706 0.080294
vt 0.887708 0.112292
vt 0.419706 0.080294
vt 0.387709 0.112292
vt 0.841844 0.028269
vt 0.824527 0.070075
vt 0.341844 0.028269
vt 0.324527 0.070075
vt 0.750000 0.010000
vt 0.750000 0.055251
vt 0.250000 0.010000
vt 0.250000 0.055251
vt 0.658156 0.028269
vt 0.675473 0.070075
vt 0.158156 0.028269
vt 0.175473 0.070075
vt 0.580294 0.080294
vt 0.612291 0.112292
vt 0.080294 0.080294
vt 0.112292 0.112292
vt 0.528269 0.158156
vt 0.570075 0.175473
vt 0.028269 0.158156
vt 0.070075 0.175473
vt 0.510000 0.250000
vt 0.555251 0.250000
vt 0.010000 0.250000
vt 0.055251 0.250000
vt 0.528269 0.341844
vt 0.570075 0.324527
vt 0.028269 0.341844
vt 0.070075 0.324527
vt 0.580294 0.419706
vt 0.612292 0.387708
vt 0.080294 0.419706
vt 0.112292 0.387708
vt 0.658156 0.471731
vt 0.675473 0.429925
vt 0.158156 0.471731
vt 0.175473 0.429925
vt 0.750000 0.286579
vt 0.763998 0.283794
vt 0.775865 0.275865
vt 0.783794 0.263998
vt 0.786579 0.250000
vt 0.783794 0.236002
vt 0.775865 0.224135
vt 0.763998 0.216206
vt 0.750000 0.213421
vt 0.736002 0.216206
vt 0.724135 0.224135
vt 0.716206 0.236002
vt 0.713421 0.250000
vt 0.716205 0.263998
vt 0.724135 0.275865
vt 0.736002 0.283794
vt 0.811827 0.399263
vt 0.750000 0.411561
vt 0.250000 0.411561
vt 0.311827 0.399263
vt 0.864241 0.364241
vt 0.364241 0.364241
vt 0.899263 0.311827
vt 0.399263 0.311827
vt 0.911561 0.250000
vt 0.411561 0.250000
vt 0.899263 0.188173
vt 0.399263 0.188173
vt 0.864241 0.135759
vt 0.364241 0.135759
vt 0.811827 0.100737
vt 0.311827 0.100737
vt 0.750000 0.088439
vt 0.250000 0.088439
vt 0.688173 0.100737
vt 0.188173 0.100737
vt 0.635759 0.135759
vt 0.135759 0.135759
vt 0.600737 0.188173
vt 0.100737 0.188173
vt 0.588439 0.250000
vt 0.088439 0.250000
vt 0.600737 0.311827
vt 0.100737 0.311827
vt 0.635759 0.364241
vt 0.135759 0.364241
vt 0.688173 0.399263
vt 0.188173 0.399263
vt 0.807456 0.388711
vt 0.750000 0.400140
vt 0.250000 0.400140
vt 0.307456 0.388711
vt 0.856165 0.356165
vt 0.356165 0.356165
vt 0.888711 0.307456
vt 0.388711 0.307456
vt 0.900140 0.250000
vt 0.400140 0.250000
vt 0.888711 0.192544
vt 0.388711 0.192544
vt 0.856165 0.143835
vt 0.356165 0.143835
vt 0.807456 0.111289
vt 0.307456 0.111289
vt 0.750000 0.099860
vt 0.250000 0.099860
vt 0.692544 0.111289
vt 0.192544 0.111289
vt 0.643835 0.143835
vt 0.143835 0.143835
vt 0.611289 0.192544
vt 0.111289 0.192544
vt 0.599860 0.250000
vt 0.099860 0.250000
vt 0.611289 0.307456
vt 0.111289 0.307456
vt 0.643835 0.356165
vt 0.143835 0.356165
vt 0.692544 0.388711
vt 0.192544 0.388711
vt 0.000000 0.000000
s 0
usemtl Material.004
f 62/1/1 64/2/1 4/3/1 2/4/1
f 10/5/2 12/6/2 16/7/2 14/8/2
f 14/8/3 16/7/3 20/9/3 18/10/3
f 18/10/4 20/9/4 24/11/4 22/12/4
f 22/12/5 24/13/5 28/14/5 26/15/5
f 26/15/6 28/14/6 32/16/6 30/17/6
f 30/17/7 32/16/7 36/18/7 34/19/7
f 34/19/8 36/18/8 40/20/8 38/21/8
f 38/21/9 40/20/9 44/22/9 42/23/9
f 42/23/10 44/22/10 48/24/10 46/25/10
f 46/25/11 48/24/11 52/26/11 50/27/11
f 50/27/12 52/26/12 56/28/12 54/29/12
f 54/29/13 56/28/13 60/30/13 58/31/13
f 58/31/14 60/30/14 64/2/14 62/1/14
f 6/32/15 8/33/15 12/6/15 10/5/15
f 2/50/17 4/51/17 8/52/17 6/32/17
f 2/53/18 6/54/18 65/55/18 66/56/18
f 8/57/19 4/58/19 67/59/19 68/60/19
f 6/54/20 10/61/20 69/62/20 65/55/20
f 12/63/21 8/57/21 68/60/21 70/64/21
f 10/61/22 14/65/22 71/66/22 69/62/22
f 16/67/23 12/63/23 70/64/23 72/68/23
f 14/65/24 18/69/24 73/70/24 71/66/24
f 20/71/25 16/67/25 72/68/25 74/72/25
f 18/69/26 22/73/26 75/74/26 73/70/26
f 24/75/27 20/71/27 74/72/27 76/76/27
f 22/73/28 26/77/28 77/78/28 75/74/28
f 28/79/29 24/75/29 76/76/29 78/80/29
f 26/77/30 30/81/30 79/82/30 77/78/30
f 32/83/31 28/79/31 78/80/31 80/84/31
f 30/81/32 34/85/32 81/86/32 79/82/32
f 36/87/33 32/83/33 80/84/33 82/88/33
f 34/85/34 38/89/34 83/90/34 81/86/34
f 40/91/35 36/87/35 82/88/35 84/92/35
f 38/89/36 42/93/36 85/94/36 83/90/36
f 44/95/37 40/91/37 84/92/37 86/96/37
f 42/93/38 46/97/38 87/98/38 85/94/38
f 48/99/39 44/95/39 86/96/39 88/100/39
f 46/97/40 50/101/40 89/102/40 87/98/40
f 52/103/41 48/99/41 88/100/41 90/104/41
f 50/101/42 54/105/42 91/106/42 89/102/42
f 56/107/43 52/103/43 90/104/43 92/108/43
f 54/105/44 58/109/44 93/110/44 91/106/44
f 60/111/45 56/107/45 92/108/45 94/112/45
f 58/109/46 62/113/46 95/114/46 93/110/46
f 64/115/47 60/111/47 94/112/47 96/116/47
f 62/113/48 2/53/48 66/56/48 95/114/48
f 4/58/49 64/115/49 96/116/49 67/59/49
f 1/117/50 5/118/50 9/119/50 13/120/50 17/121/50 21/122/50 25/123/50 29/124/50 33/125/50 37/126/50 41/127/50 45/128/50 49/129/50 53/130/50 57/131/50 61/132/50
f 97/133/50 98/134/50 66/56/50 65/55/50
f 99/135/16 100/136/16 68/60/16 67/59/16
f 101/137/50 97/133/50 65/55/50 69/62/50
f 100/136/16 102/138/16 70/64/16 68/60/16
f 103/139/50 101/137/50 69/62/50 71/66/50
f 102/138/16 104/140/16 72/68/16 70/64/16
f 105/141/50 103/139/50 71/66/50 73/70/50
f 104/140/16 106/142/16 74/72/16 72/68/16
f 107/143/50 105/141/50 73/70/50 75/74/50
f 106/142/16 108/144/16 76/76/16 74/72/16
f 109/145/50 107/143/50 75/74/50 77/78/50
f 108/144/16 110/146/16 78/80/16 76/76/16
f 111/147/50 109/145/50 77/78/50 79/82/50
f 110/146/16 112/148/16 80/84/16 78/80/16
f 113/149/50 111/147/50 79/82/50 81/86/50
f 112/148/16 114/150/16 82/88/16 80/84/16
f 115/151/50 113/149/50 81/86/50 83/90/50
f 114/150/16 116/152/16 84/92/16 82/88/16
f 117/153/50 115/151/50 83/90/50 85/94/50
f 116/152/16 118/154/16 86/96/16 84/92/16
f 119/155/50 117/153/50 85/94/50 87/98/50
f 118/154/16 120/156/16 88/100/16 86/96/16
f 121/157/50 119/155/50 87/98/50 89/102/50
f 120/156/16 122/158/16 90/104/16 88/100/16
f 123/159/50 121/157/50 89/102/50 91/106/50
f 122/158/16 124/160/16 92/108/16 90/104/16
f 125/161/50 123/159/50 91/106/50 93/110/50
f 124/160/16 126/162/16 94/112/16 92/108/16
f 127/163/50 125/161/50 93/110/50 95/114/50
f 126/162/16 128/164/16 96/116/16 94/112/16
f 98/134/50 127/163/50 95/114/50 66/56/50
f 128/164/16 99/135/16 67/59/16 96/116/16
f 129/165/51 130/166/51 98/134/51 97/133/51
f 133/169/53 129/165/53 97/133/53 101/137/53
f 135/171/55 133/169/55 101/137/55 103/139/55
f 137/173/57 135/171/57 103/139/57 105/141/57
f 139/175/59 137/173/59 105/141/59 107/143/59
f 141/177/61 139/175/61 107/143/61 109/145/61
f 143/179/63 141/177/63 109/145/63 111/147/63
f 145/181/65 143/179/65 111/147/65 113/149/65
f 147/183/67 145/181/67 113/149/67 115/151/67
f 149/185/69 147/183/69 115/151/69 117/153/69
f 151/187/71 149/185/71 117/153/71 119/155/71
f 153/189/73 151/187/73 119/155/73 121/157/73
f 155/191/75 153/189/75 121/157/75 123/159/75
f 157/193/77 155/191/77 123/159/77 125/161/77
f 159/195/79 157/193/79 125/161/79 127/163/79
f 130/166/81 159/195/81 127/163/81 98/134/81
f 5/118/83 1/117/83 130/166/83 129/165/83
f 13/120/85 9/119/85 133/169/85 135/171/85
f 21/122/87 17/121/87 137/173/87 139/175/87
f 29/124/89 25/123/89 141/177/89 143/179/89
f 37/126/91 33/125/91 145/181/91 147/183/91
f 45/128/93 41/127/93 149/185/93 151/187/93
f 53/130/95 49/129/95 153/189/95 155/191/95
f 61/132/97 57/131/97 157/193/97 159/195/97
f 47/197/10 45/197/10 41/197/10 43/197/10
usemtl Material.005
f 7/34/16 3/35/16 63/36/16 59/37/16 55/38/16 51/39/16 47/40/16 43/41/16 39/42/16 35/43/16 31/44/16 27/45/16 23/46/16 19/47/16 15/48/16 11/49/16
f 131/167/52 132/168/52 100/136/52 99/135/52
f 132/168/54 134/170/54 102/138/54 100/136/54
f 134/170/56 136/172/56 104/140/56 102/138/56
f 136/172/58 138/174/58 106/142/58 104/140/58
f 138/174/60 140/176/60 108/144/60 106/142/60
f 140/176/62 142/178/62 110/146/62 108/144/62
f 142/178/64 144/180/64 112/148/64 110/146/64
f 144/180/66 146/182/66 114/150/66 112/148/66
f 146/182/68 148/184/68 116/152/68 114/150/68
f 148/184/70 150/186/70 118/154/70 116/152/70
f 150/186/72 152/188/72 120/156/72 118/154/72
f 152/188/74 154/190/74 122/158/74 120/156/74
f 154/190/76 156/192/76 124/160/76 122/158/76
f 156/192/78 158/194/78 126/162/78 124/160/78
f 158/194/80 160/196/80 128/164/80 126/162/80
f 160/196/82 131/167/82 99/135/82 128/164/82
f 3/35/84 7/34/84 132/168/84 131/167/84
f 11/49/86 15/48/86 136/172/86 134/170/86
f 19/47/88 23/46/88 140/176/88 138/174/88
f 27/45/90 31/44/90 144/180/90 142/178/90
f 35/43/92 39/42/92 148/184/92 146/182/92
f 43/41/94 47/40/94 152/188/94 150/186/94
f 51/39/96 55/38/96 156/192/96 154/190/96
f 59/37/98 63/36/98 160/196/98 158/194/98
f 147/183/99 148/184/99 39/42/99 37/126/99
f 145/181/100 33/125/100 35/43/100 146/182/100
f 143/179/101 144/180/101 31/44/101 29/124/101
f 141/177/102 25/123/102 27/45/102 142/178/102
f 33/125/7 29/124/7 31/44/7 35/43/7
f 41/127/9 37/126/9 39/42/9 43/41/9
f 49/129/11 45/128/11 47/40/11 51/39/11
f 151/197/103 152/197/103 47/197/103 45/197/103
f 153/189/104 49/129/104 51/39/104 154/190/104
f 150/197/105 149/197/105 41/197/105 43/197/105
f 157/193/106 57/131/106 59/37/106 158/194/106
f 155/191/107 156/192/107 55/38/107 53/130/107
f 57/131/13 53/130/13 55/38/13 59/37/13
f 1/117/1 61/132/1 63/36/1 3/35/1
f 159/195/108 160/196/108 63/36/108 61/132/108
f 1/117/109 3/35/109 131/167/109 130/166/109
f 129/165/110 132/168/110 7/34/110 5/118/110
f 133/169/111 9/119/111 11/49/111 134/170/111
f 9/119/15 5/118/15 7/34/15 11/49/15
f 17/121/3 13/120/3 15/48/3 19/47/3
f 135/171/112 136/172/112 15/48/112 13/120/112
f 137/173/113 17/121/113 19/47/113 138/174/113
f 137/173/11 138/174/11 136/172/11 135/171/11
f 133/169/9 134/170/9 132/168/9 129/165/9
f 130/166/7 131/167/7 160/196/7 159/195/7
f 139/175/114 140/176/114 23/46/114 21/122/114
f 25/123/5 21/122/5 23/46/5 27/45/5
f 141/177/13 142/178/13 140/176/13 139/175/13
f 145/181/1 146/182/1 144/180/1 143/179/1
f 149/197/15 150/197/15 148/184/15 147/183/15
f 153/189/3 154/190/3 152/188/3 151/197/3
f 157/193/5 158/194/5 156/192/5 155/191/5
